<?xml version="1.0" encoding="utf-8"?>
<!-- Generator: Adobe Illustrator 16.0.0, SVG Export Plug-In . SVG Version: 6.00 Build 0)  -->
<!DOCTYPE svg PUBLIC "-//W3C//DTD SVG 1.1//EN" "http://www.w3.org/Graphics/SVG/1.1/DTD/svg11.dtd">
<svg version="1.1" id="图层_1" xmlns="http://www.w3.org/2000/svg" xmlns:xlink="http://www.w3.org/1999/xlink" x="0px" y="0px"
	 width="200px" height="200px" viewBox="0 0 200 200" enable-background="new 0 0 200 200" xml:space="preserve">
<path fill="#1CB09A" d="M144.23,179.266h-31.738c-3.153,0-5.689-2.537-5.689-5.689v-49.304c0-0.023-0.047-0.095-0.095-0.095h-14.91
	c-0.024,0-0.095,0.047-0.095,0.095v49.304c0,3.152-2.536,5.689-5.689,5.689H54.299c-9.505,0-17.233-7.728-17.233-17.232v-50.11
	h-3.46c-5.357,0-10.169-3.176-12.302-8.106c-2.109-4.907-1.114-10.596,2.584-14.483l58.003-61.25
	c4.693-4.954,11.283-7.799,18.109-7.799c6.826,0,13.416,2.845,18.109,7.799l57.979,61.25c3.674,3.887,4.693,9.576,2.584,14.483
	c-2.11,4.906-6.945,8.106-12.303,8.106h-4.906v50.11C161.464,171.538,153.736,179.266,144.23,179.266z M118.181,167.887h26.05
	c3.225,0,5.855-2.631,5.855-5.854v-55.798c0-3.153,2.536-5.689,5.689-5.689h10.596c0.615,0,1.469-0.308,1.849-1.209
	s0.023-1.73-0.38-2.181l-58.026-61.25c-2.584-2.726-6.068-4.243-9.837-4.243c-3.769,0-7.253,1.493-9.837,4.243l-58.003,61.25
	c-0.427,0.45-0.782,1.28-0.379,2.181c0.379,0.9,1.233,1.209,1.849,1.209h9.15c3.152,0,5.688,2.536,5.688,5.689v55.798
	c0,3.224,2.631,5.854,5.855,5.854h26.05v-43.614c0-6.329,5.144-11.473,11.473-11.473h14.91c6.328,0,11.473,5.144,11.473,11.473
	v43.614H118.181z"/>
</svg>
